<svg width="144" height="111" viewBox="0 0 144 111" fill="none" xmlns="http://www.w3.org/2000/svg">
<g clip-path="url(#clip0_366_101)">
<rect width="144" height="111" fill="white"/>
<path d="M60.7462 79.2772V79.5172H47.1462C46.7729 78.2372 46.3195 76.7706 45.7862 75.1172C45.3062 73.4639 44.7729 71.7039 44.1862 69.8372H26.9062C25.8395 73.5706 24.8529 76.7972 23.9462 79.5172H10.3462V79.3572L26.7462 28.8772H44.3462L60.7462 79.2772ZM35.3862 37.9972C34.8529 40.7172 34.0795 44.0239 33.0662 47.9172C32.0529 51.8106 30.9862 55.7839 29.8662 59.8372H41.3062C40.1329 55.7839 39.0395 51.8106 38.0262 47.9172C37.0129 44.0239 36.2395 40.7172 35.7062 37.9972H35.3862Z" fill="#3A3A93"/>
<path d="M65.0974 66.4772C67.4441 67.2772 70.0041 67.9172 72.7774 68.3972C75.6041 68.8239 78.4041 69.0372 81.1774 69.0372C84.9641 69.0372 87.7641 68.8772 89.5774 68.5572C91.4441 68.1839 92.6708 67.6239 93.2574 66.8772C93.8441 66.1306 94.1374 65.1706 94.1374 63.9972C94.1374 62.9839 93.9241 62.1839 93.4974 61.5972C93.0708 61.0106 92.2441 60.5572 91.0174 60.2372C89.7908 59.8639 87.9774 59.5706 85.5774 59.3572L80.2974 58.8772C76.3508 58.5039 73.2308 57.6772 70.9374 56.3972C68.6974 55.1172 67.0974 53.4106 66.1374 51.2772C65.2308 49.0906 64.7774 46.4772 64.7774 43.4372C64.7774 39.8106 65.4974 36.8772 66.9374 34.6372C68.4308 32.3972 70.8308 30.7706 74.1374 29.7572C77.4441 28.6906 81.8441 28.1572 87.3374 28.1572C94.4841 28.1572 100.377 29.0906 105.017 30.9572L104.777 41.8372L104.537 42.1572C99.2574 40.2906 93.7374 39.3572 87.9774 39.3572C85.2041 39.3572 83.0708 39.5172 81.5774 39.8372C80.0841 40.1039 79.0441 40.5572 78.4574 41.1972C77.8708 41.8372 77.5774 42.7439 77.5774 43.9172C77.5774 45.0906 77.7641 45.9706 78.1374 46.5572C78.5641 47.1439 79.3908 47.5972 80.6174 47.9172C81.8441 48.1839 83.6308 48.4506 85.9774 48.7172L91.0174 49.2772C95.2841 49.7572 98.5641 50.6106 100.857 51.8372C103.151 53.0639 104.724 54.7172 105.577 56.7972C106.484 58.8239 106.937 61.3039 106.937 64.2372C106.937 67.8106 106.164 70.7972 104.617 73.1972C103.124 75.5439 100.671 77.3039 97.2574 78.4772C93.8441 79.6506 89.2841 80.2372 83.5774 80.2372C79.8441 80.2372 76.4841 80.0506 73.4974 79.6772C70.5108 79.2506 67.6041 78.6906 64.7774 77.9972V66.7172L65.0974 66.4772Z" fill="url(#paint0_linear_366_101)"/>
<path d="M39.7707 9.2656C25.2645 11.8647 13.9912 19.0825 9.42523 30.2798C0.353887 52.5258 21.191 82.0552 55.9663 96.2357C90.7416 110.416 126.286 103.878 135.358 81.6319C144.429 59.386 123.592 29.8565 88.8165 15.676C75.8712 10.3972 62.8192 7.98957 51.0659 8.19453" stroke="url(#paint1_linear_366_101)" stroke-width="7"/>
<path d="M128.146 79.5173H115.346V28.8773H128.146V79.5173Z" fill="#382F84"/>
<path d="M47.0719 6.81857L34.3349 18.1659L30.244 4.02331L47.0719 6.81857Z" fill="#747DFF"/>
<path d="M55.9663 96.2345C21.1911 82.054 0.353916 52.5246 9.42526 30.2786C13.3658 20.6152 22.3017 13.9157 34 10.591" stroke="#747DFF" stroke-width="7"/>
</g>
<defs>
<linearGradient id="paint0_linear_366_101" x1="9.54614" y1="38.2373" x2="138.546" y2="38.2373" gradientUnits="userSpaceOnUse">
<stop stop-color="#300D55"/>
<stop offset="1" stop-color="#3E4BAB"/>
</linearGradient>
<linearGradient id="paint1_linear_366_101" x1="34.5461" y1="83.2373" x2="104.546" y2="23.2373" gradientUnits="userSpaceOnUse">
<stop stop-color="#6D71FF"/>
<stop offset="0.302885" stop-color="#7D8DFF"/>
<stop offset="1" stop-color="#A1CFFF"/>
</linearGradient>
<clipPath id="clip0_366_101">
<rect width="144" height="111" fill="white"/>
</clipPath>
</defs>
</svg>
